# xmcd
#
# Track frame offsets:
#	150
#	72546
#	106603
#	146545
#	168365
#	208529
#	259229
#
# Disc length: 3991 seconds
#
# Revision: 1
# Processed by: cddbd v1.5.2PL0 Copyright (c) Steve Scherf et al.
# Submitted via: audiograbber 1.83.01
#
DISCID=610f9507
DTITLE=Grateful Dead - 78-05-06 Patrick Gym, University of Vermont, Burlington 
DTITLE=VT
DYEAR=1900
DGENRE=
TTITLE0=Sugaree
TTITLE1=New Minglewood Blues
TTITLE2=Peggy-O
TTITLE3=Beat It On Down The Line
TTITLE4=Loser
TTITLE5=Looks Like Rain
TTITLE6=It Must Have Been The Roses
EXTD=
EXTT0=
EXTT1=
EXTT2=
EXTT3=
EXTT4=
EXTT5=
EXTT6=
PLAYORDER=
